<?xml version="1.0" encoding="UTF-8" standalone="no"?>
<!DOCTYPE svg PUBLIC "-//W3C//DTD SVG 1.1//EN"
 "http://www.w3.org/Graphics/SVG/1.1/DTD/svg11.dtd">
<!-- Generated by graphviz version 2.40.1 (20161225.0304)
 -->
<!-- Title: Salesforce+ ERD Pages: 1 -->
<svg width="968pt" height="447pt"
 viewBox="0.00 0.00 967.87 446.80" xmlns="http://www.w3.org/2000/svg" xmlns:xlink="http://www.w3.org/1999/xlink">
<g id="graph0" class="graph" transform="scale(1 1) rotate(0) translate(4 442.8)">
<title>Salesforce+ ERD</title>
<polygon fill="#efeffd" stroke="transparent" points="-4,4 -4,-442.8 963.8746,-442.8 963.8746,4 -4,4"/>
<text text-anchor="middle" x="911.3814" y="-6.7" font-family="Courier,monospace" font-size="9.00" fill="#000000">Salesforce ERD </text>
<!-- ActiveScratchOrg -->
<g id="node1" class="node">
<title>ActiveScratchOrg</title>
<g id="a_node1"><a xlink:href="#" xlink:title=" ActiveScratchOrg ">
<polygon fill="#ffeeff" stroke="transparent" points="201.8746,-18.8 201.8746,-438.8 959.8746,-438.8 959.8746,-18.8 201.8746,-18.8"/>
<polygon fill="#add8e6" stroke="transparent" points="202.8746,-418.8 202.8746,-437.8 958.8746,-437.8 958.8746,-418.8 202.8746,-418.8"/>
<polygon fill="none" stroke="#99ccff" points="202.8746,-418.8 202.8746,-437.8 958.8746,-437.8 958.8746,-418.8 202.8746,-418.8"/>
<text text-anchor="start" x="528.0834" y="-425.9" font-family="Courier,monospace" font-weight="bold" font-size="11.00" fill="#000000">ActiveScratchOrg</text>
<polygon fill="#99ccff" stroke="transparent" points="202.8746,-399.8 202.8746,-418.8 854.8746,-418.8 854.8746,-399.8 202.8746,-399.8"/>
<polygon fill="none" stroke="#99ccff" points="202.8746,-399.8 202.8746,-418.8 854.8746,-418.8 854.8746,-399.8 202.8746,-399.8"/>
<text text-anchor="start" x="205.8746" y="-406.9" font-family="Courier,monospace" font-size="11.00" fill="#000000"> &#160;&#160;&#160;&#160;&#160;&#160;&#160;&#160;&#160;&#160;&#160;&#160;&#160;&#160;&#160;&#160;&#160;&#160;&#160;&#160;&#160;&#160;&#160;&#160;&#160;&#160;&#160;&#160;&#160;&#160;&#160;&#160;&#160;&#160;&#160;&#160;&#160;&#160;&#160;&#160;&#160;&#160;</text>
<text text-anchor="start" x="489.6273" y="-406.9" font-family="Courier,monospace" font-weight="bold" font-size="11.00" fill="#000000">Id</text>
<text text-anchor="start" x="502.8251" y="-406.9" font-family="Courier,monospace" font-size="11.00" fill="#000000"> &#160;&#160;&#160;&#160;&#160;&#160;&#160;&#160;&#160;&#160;&#160;&#160;&#160;&#160;&#160;&#160;&#160;&#160;&#160;&#160;&#160;&#160;&#160;&#160;&#160;&#160;&#160;&#160;&#160;&#160;&#160;&#160;&#160;&#160;&#160;&#160;&#160;&#160;&#160;</text>
<polygon fill="none" stroke="#99ccff" points="854.8746,-399.8 854.8746,-418.8 958.8746,-418.8 958.8746,-399.8 854.8746,-399.8"/>
<text text-anchor="start" x="887.0779" y="-405.9" font-family="Courier,monospace" font-size="11.00" fill="#000000">id(18)</text>
<polygon fill="none" stroke="#99ccff" points="202.8746,-380.8 202.8746,-399.8 854.8746,-399.8 854.8746,-380.8 202.8746,-380.8"/>
<text text-anchor="start" x="205.8746" y="-386.9" font-family="Courier,monospace" font-size="11.00" fill="#000000"> &#160;&#160;&#160;&#160;&#160;&#160;&#160;&#160;&#160;&#160;&#160;&#160;&#160;&#160;&#160;&#160;&#160;&#160;&#160;&#160;&#160;&#160;&#160;&#160;&#160;&#160;&#160;&#160;&#160;&#160;&#160;&#160;&#160;&#160;&#160;&#160;&#160;&#160;&#160;&#160;OwnerId &#160;&#160;&#160;&#160;&#160;&#160;&#160;&#160;&#160;&#160;&#160;&#160;&#160;&#160;&#160;&#160;&#160;&#160;&#160;&#160;&#160;&#160;&#160;&#160;&#160;&#160;&#160;&#160;&#160;&#160;&#160;&#160;&#160;&#160;&#160;&#160;&#160;&#160;</text>
<polygon fill="none" stroke="#99ccff" points="854.8746,-380.8 854.8746,-399.8 958.8746,-399.8 958.8746,-380.8 854.8746,-380.8"/>
<text text-anchor="start" x="863.9818" y="-386.9" font-family="Courier,monospace" font-size="11.00" fill="#000000">reference(18)</text>
<polygon fill="none" stroke="#99ccff" points="202.8746,-361.8 202.8746,-380.8 854.8746,-380.8 854.8746,-361.8 202.8746,-361.8"/>
<text text-anchor="start" x="205.8746" y="-367.9" font-family="Courier,monospace" font-size="11.00" fill="#000000"> &#160;&#160;&#160;&#160;&#160;&#160;&#160;&#160;&#160;&#160;&#160;&#160;&#160;&#160;&#160;&#160;&#160;&#160;&#160;&#160;&#160;&#160;&#160;&#160;&#160;&#160;&#160;&#160;&#160;&#160;&#160;&#160;&#160;&#160;&#160;&#160;&#160;&#160;&#160;&#160;IsDeleted &#160;&#160;&#160;&#160;&#160;&#160;&#160;&#160;&#160;&#160;&#160;&#160;&#160;&#160;&#160;&#160;&#160;&#160;&#160;&#160;&#160;&#160;&#160;&#160;&#160;&#160;&#160;&#160;&#160;&#160;&#160;&#160;&#160;&#160;&#160;&#160;&#160;&#160;</text>
<polygon fill="none" stroke="#99ccff" points="854.8746,-361.8 854.8746,-380.8 958.8746,-380.8 958.8746,-361.8 854.8746,-361.8"/>
<text text-anchor="start" x="883.7785" y="-367.9" font-family="Courier,monospace" font-size="11.00" fill="#000000">boolean</text>
<polygon fill="none" stroke="#99ccff" points="202.8746,-342.8 202.8746,-361.8 854.8746,-361.8 854.8746,-342.8 202.8746,-342.8"/>
<text text-anchor="start" x="205.8746" y="-348.9" font-family="Courier,monospace" font-size="11.00" fill="#000000"> &#160;&#160;&#160;&#160;&#160;&#160;&#160;&#160;&#160;&#160;&#160;&#160;&#160;&#160;&#160;&#160;&#160;&#160;&#160;&#160;&#160;&#160;&#160;&#160;&#160;&#160;&#160;&#160;&#160;&#160;&#160;&#160;&#160;&#160;&#160;&#160;&#160;&#160;&#160;&#160;Name &#160;&#160;&#160;&#160;&#160;&#160;&#160;&#160;&#160;&#160;&#160;&#160;&#160;&#160;&#160;&#160;&#160;&#160;&#160;&#160;&#160;&#160;&#160;&#160;&#160;&#160;&#160;&#160;&#160;&#160;&#160;&#160;&#160;&#160;&#160;&#160;&#160;&#160;</text>
<polygon fill="none" stroke="#99ccff" points="854.8746,-342.8 854.8746,-361.8 958.8746,-361.8 958.8746,-342.8 854.8746,-342.8"/>
<text text-anchor="start" x="870.5807" y="-348.9" font-family="Courier,monospace" font-size="11.00" fill="#000000">string(255)</text>
<polygon fill="none" stroke="#99ccff" points="202.8746,-323.8 202.8746,-342.8 854.8746,-342.8 854.8746,-323.8 202.8746,-323.8"/>
<text text-anchor="start" x="205.8746" y="-329.9" font-family="Courier,monospace" font-size="11.00" fill="#000000"> &#160;&#160;&#160;&#160;&#160;&#160;&#160;&#160;&#160;&#160;&#160;&#160;&#160;&#160;&#160;&#160;&#160;&#160;&#160;&#160;&#160;&#160;&#160;&#160;&#160;&#160;&#160;&#160;&#160;&#160;&#160;&#160;&#160;&#160;&#160;&#160;&#160;&#160;&#160;&#160;LastModifiedById &#160;&#160;&#160;&#160;&#160;&#160;&#160;&#160;&#160;&#160;&#160;&#160;&#160;&#160;&#160;&#160;&#160;&#160;&#160;&#160;&#160;&#160;&#160;&#160;&#160;&#160;&#160;&#160;&#160;&#160;&#160;&#160;&#160;&#160;&#160;&#160;&#160;&#160;</text>
<polygon fill="none" stroke="#99ccff" points="854.8746,-323.8 854.8746,-342.8 958.8746,-342.8 958.8746,-323.8 854.8746,-323.8"/>
<text text-anchor="start" x="863.9818" y="-329.9" font-family="Courier,monospace" font-size="11.00" fill="#000000">reference(18)</text>
<polygon fill="none" stroke="#99ccff" points="202.8746,-304.8 202.8746,-323.8 854.8746,-323.8 854.8746,-304.8 202.8746,-304.8"/>
<text text-anchor="start" x="205.8746" y="-310.9" font-family="Courier,monospace" font-size="11.00" fill="#000000"> &#160;&#160;&#160;&#160;&#160;&#160;&#160;&#160;&#160;&#160;&#160;&#160;&#160;&#160;&#160;&#160;&#160;&#160;&#160;&#160;&#160;&#160;&#160;&#160;&#160;&#160;&#160;&#160;&#160;&#160;&#160;&#160;&#160;&#160;&#160;&#160;&#160;&#160;&#160;&#160;LastViewedDate &#160;&#160;&#160;&#160;&#160;&#160;&#160;&#160;&#160;&#160;&#160;&#160;&#160;&#160;&#160;&#160;&#160;&#160;&#160;&#160;&#160;&#160;&#160;&#160;&#160;&#160;&#160;&#160;&#160;&#160;&#160;&#160;&#160;&#160;&#160;&#160;&#160;&#160;</text>
<polygon fill="none" stroke="#99ccff" points="854.8746,-304.8 854.8746,-323.8 958.8746,-323.8 958.8746,-304.8 854.8746,-304.8"/>
<text text-anchor="start" x="880.479" y="-310.9" font-family="Courier,monospace" font-size="11.00" fill="#000000">datetime</text>
<polygon fill="none" stroke="#99ccff" points="202.8746,-285.8 202.8746,-304.8 854.8746,-304.8 854.8746,-285.8 202.8746,-285.8"/>
<text text-anchor="start" x="205.5285" y="-291.9" font-family="Courier,monospace" font-size="11.00" fill="#000000"> &#160;&#160;&#160;&#160;&#160;&#160;&#160;&#160;&#160;&#160;&#160;&#160;&#160;&#160;&#160;&#160;&#160;&#160;&#160;&#160;&#160;&#160;&#160;&#160;&#160;&#160;&#160;&#160;&#160;&#160;&#160;&#160;&#160;&#160;&#160;&#160;&#160;&#160;&#160;&#160;LastReferencedDate &#160;&#160;&#160;&#160;&#160;&#160;&#160;&#160;&#160;&#160;&#160;&#160;&#160;&#160;&#160;&#160;&#160;&#160;&#160;&#160;&#160;&#160;&#160;&#160;&#160;&#160;&#160;&#160;&#160;&#160;&#160;&#160;&#160;&#160;&#160;&#160;&#160;&#160;</text>
<polygon fill="none" stroke="#99ccff" points="854.8746,-285.8 854.8746,-304.8 958.8746,-304.8 958.8746,-285.8 854.8746,-285.8"/>
<text text-anchor="start" x="880.479" y="-291.9" font-family="Courier,monospace" font-size="11.00" fill="#000000">datetime</text>
<polygon fill="none" stroke="#99ccff" points="202.8746,-266.8 202.8746,-285.8 854.8746,-285.8 854.8746,-266.8 202.8746,-266.8"/>
<text text-anchor="start" x="205.8746" y="-272.9" font-family="Courier,monospace" font-size="11.00" fill="#000000"> &#160;&#160;&#160;&#160;&#160;&#160;&#160;&#160;&#160;&#160;&#160;&#160;&#160;&#160;&#160;&#160;&#160;&#160;&#160;&#160;&#160;&#160;&#160;&#160;&#160;&#160;&#160;&#160;&#160;&#160;&#160;&#160;&#160;&#160;&#160;&#160;&#160;&#160;&#160;&#160;ScratchOrg &#160;&#160;&#160;&#160;&#160;&#160;&#160;&#160;&#160;&#160;&#160;&#160;&#160;&#160;&#160;&#160;&#160;&#160;&#160;&#160;&#160;&#160;&#160;&#160;&#160;&#160;&#160;&#160;&#160;&#160;&#160;&#160;&#160;&#160;&#160;&#160;&#160;&#160;</text>
<polygon fill="none" stroke="#99ccff" points="854.8746,-266.8 854.8746,-285.8 958.8746,-285.8 958.8746,-266.8 854.8746,-266.8"/>
<text text-anchor="start" x="873.8801" y="-272.9" font-family="Courier,monospace" font-size="11.00" fill="#000000">string(15)</text>
<polygon fill="none" stroke="#99ccff" points="202.8746,-247.8 202.8746,-266.8 854.8746,-266.8 854.8746,-247.8 202.8746,-247.8"/>
<text text-anchor="start" x="205.8746" y="-253.9" font-family="Courier,monospace" font-size="11.00" fill="#000000"> &#160;&#160;&#160;&#160;&#160;&#160;&#160;&#160;&#160;&#160;&#160;&#160;&#160;&#160;&#160;&#160;&#160;&#160;&#160;&#160;&#160;&#160;&#160;&#160;&#160;&#160;&#160;&#160;&#160;&#160;&#160;&#160;&#160;&#160;&#160;&#160;&#160;&#160;&#160;&#160;ScratchOrgInfoId &#160;&#160;&#160;&#160;&#160;&#160;&#160;&#160;&#160;&#160;&#160;&#160;&#160;&#160;&#160;&#160;&#160;&#160;&#160;&#160;&#160;&#160;&#160;&#160;&#160;&#160;&#160;&#160;&#160;&#160;&#160;&#160;&#160;&#160;&#160;&#160;&#160;&#160;</text>
<polygon fill="none" stroke="#99ccff" points="854.8746,-247.8 854.8746,-266.8 958.8746,-266.8 958.8746,-247.8 854.8746,-247.8"/>
<text text-anchor="start" x="863.9818" y="-253.9" font-family="Courier,monospace" font-size="11.00" fill="#000000">reference(18)</text>
<polygon fill="none" stroke="#99ccff" points="202.8746,-228.8 202.8746,-247.8 854.8746,-247.8 854.8746,-228.8 202.8746,-228.8"/>
<text text-anchor="start" x="205.8746" y="-234.9" font-family="Courier,monospace" font-size="11.00" fill="#000000"> &#160;&#160;&#160;&#160;&#160;&#160;&#160;&#160;&#160;&#160;&#160;&#160;&#160;&#160;&#160;&#160;&#160;&#160;&#160;&#160;&#160;&#160;&#160;&#160;&#160;&#160;&#160;&#160;&#160;&#160;&#160;&#160;&#160;&#160;&#160;&#160;&#160;&#160;&#160;&#160;Description &#160;&#160;&#160;&#160;&#160;&#160;&#160;&#160;&#160;&#160;&#160;&#160;&#160;&#160;&#160;&#160;&#160;&#160;&#160;&#160;&#160;&#160;&#160;&#160;&#160;&#160;&#160;&#160;&#160;&#160;&#160;&#160;&#160;&#160;&#160;&#160;&#160;&#160;</text>
<polygon fill="none" stroke="#99ccff" points="854.8746,-228.8 854.8746,-247.8 958.8746,-247.8 958.8746,-228.8 854.8746,-228.8"/>
<text text-anchor="start" x="860.6823" y="-234.9" font-family="Courier,monospace" font-size="11.00" fill="#000000">textarea(2000)</text>
<polygon fill="none" stroke="#99ccff" points="202.8746,-209.8 202.8746,-228.8 854.8746,-228.8 854.8746,-209.8 202.8746,-209.8"/>
<text text-anchor="start" x="205.8746" y="-215.9" font-family="Courier,monospace" font-size="11.00" fill="#000000"> &#160;&#160;&#160;&#160;&#160;&#160;&#160;&#160;&#160;&#160;&#160;&#160;&#160;&#160;&#160;&#160;&#160;&#160;&#160;&#160;&#160;&#160;&#160;&#160;&#160;&#160;&#160;&#160;&#160;&#160;&#160;&#160;&#160;&#160;&#160;&#160;&#160;&#160;&#160;&#160;Features &#160;&#160;&#160;&#160;&#160;&#160;&#160;&#160;&#160;&#160;&#160;&#160;&#160;&#160;&#160;&#160;&#160;&#160;&#160;&#160;&#160;&#160;&#160;&#160;&#160;&#160;&#160;&#160;&#160;&#160;&#160;&#160;&#160;&#160;&#160;&#160;&#160;&#160;</text>
<polygon fill="none" stroke="#99ccff" points="854.8746,-209.8 854.8746,-228.8 958.8746,-228.8 958.8746,-209.8 854.8746,-209.8"/>
<text text-anchor="start" x="857.3829" y="-215.9" font-family="Courier,monospace" font-size="11.00" fill="#000000">textarea(10000)</text>
<polygon fill="none" stroke="#99ccff" points="202.8746,-190.8 202.8746,-209.8 854.8746,-209.8 854.8746,-190.8 202.8746,-190.8"/>
<text text-anchor="start" x="205.8746" y="-196.9" font-family="Courier,monospace" font-size="11.00" fill="#000000"> &#160;&#160;&#160;&#160;&#160;&#160;&#160;&#160;&#160;&#160;&#160;&#160;&#160;&#160;&#160;&#160;&#160;&#160;&#160;&#160;&#160;&#160;&#160;&#160;&#160;&#160;&#160;&#160;&#160;&#160;&#160;&#160;&#160;&#160;&#160;&#160;&#160;&#160;&#160;&#160;Edition &#160;&#160;&#160;&#160;&#160;&#160;&#160;&#160;&#160;&#160;&#160;&#160;&#160;&#160;&#160;&#160;&#160;&#160;&#160;&#160;&#160;&#160;&#160;&#160;&#160;&#160;&#160;&#160;&#160;&#160;&#160;&#160;&#160;&#160;&#160;&#160;&#160;&#160;</text>
<polygon fill="none" stroke="#99ccff" points="854.8746,-190.8 854.8746,-209.8 958.8746,-209.8 958.8746,-190.8 854.8746,-190.8"/>
<text text-anchor="start" x="863.9818" y="-196.9" font-family="Courier,monospace" font-size="11.00" fill="#000000">picklist(255)</text>
<polygon fill="none" stroke="#99ccff" points="202.8746,-171.8 202.8746,-190.8 854.8746,-190.8 854.8746,-171.8 202.8746,-171.8"/>
<text text-anchor="start" x="205.8746" y="-177.9" font-family="Courier,monospace" font-size="11.00" fill="#000000"> &#160;&#160;&#160;&#160;&#160;&#160;&#160;&#160;&#160;&#160;&#160;&#160;&#160;&#160;&#160;&#160;&#160;&#160;&#160;&#160;&#160;&#160;&#160;&#160;&#160;&#160;&#160;&#160;&#160;&#160;&#160;&#160;&#160;&#160;&#160;&#160;&#160;&#160;&#160;&#160;SignupTrialDays &#160;&#160;&#160;&#160;&#160;&#160;&#160;&#160;&#160;&#160;&#160;&#160;&#160;&#160;&#160;&#160;&#160;&#160;&#160;&#160;&#160;&#160;&#160;&#160;&#160;&#160;&#160;&#160;&#160;&#160;&#160;&#160;&#160;&#160;&#160;&#160;&#160;&#160;</text>
<polygon fill="none" stroke="#99ccff" points="854.8746,-171.8 854.8746,-190.8 958.8746,-190.8 958.8746,-171.8 854.8746,-171.8"/>
<text text-anchor="start" x="896.9763" y="-177.9" font-family="Courier,monospace" font-size="11.00" fill="#000000">int</text>
<polygon fill="none" stroke="#99ccff" points="202.8746,-152.8 202.8746,-171.8 854.8746,-171.8 854.8746,-152.8 202.8746,-152.8"/>
<text text-anchor="start" x="205.8746" y="-158.9" font-family="Courier,monospace" font-size="11.00" fill="#000000"> &#160;&#160;&#160;&#160;&#160;&#160;&#160;&#160;&#160;&#160;&#160;&#160;&#160;&#160;&#160;&#160;&#160;&#160;&#160;&#160;&#160;&#160;&#160;&#160;&#160;&#160;&#160;&#160;&#160;&#160;&#160;&#160;&#160;&#160;&#160;&#160;&#160;&#160;&#160;&#160;ExpirationDate &#160;&#160;&#160;&#160;&#160;&#160;&#160;&#160;&#160;&#160;&#160;&#160;&#160;&#160;&#160;&#160;&#160;&#160;&#160;&#160;&#160;&#160;&#160;&#160;&#160;&#160;&#160;&#160;&#160;&#160;&#160;&#160;&#160;&#160;&#160;&#160;&#160;&#160;</text>
<polygon fill="none" stroke="#99ccff" points="854.8746,-152.8 854.8746,-171.8 958.8746,-171.8 958.8746,-152.8 854.8746,-152.8"/>
<text text-anchor="start" x="893.6768" y="-158.9" font-family="Courier,monospace" font-size="11.00" fill="#000000">date</text>
<polygon fill="none" stroke="#99ccff" points="202.8746,-133.8 202.8746,-152.8 854.8746,-152.8 854.8746,-133.8 202.8746,-133.8"/>
<text text-anchor="start" x="205.8746" y="-139.9" font-family="Courier,monospace" font-size="11.00" fill="#000000"> &#160;&#160;&#160;&#160;&#160;&#160;&#160;&#160;&#160;&#160;&#160;&#160;&#160;&#160;&#160;&#160;&#160;&#160;&#160;&#160;&#160;&#160;&#160;&#160;&#160;&#160;&#160;&#160;&#160;&#160;&#160;&#160;&#160;&#160;&#160;&#160;&#160;&#160;&#160;&#160;SignupInstance &#160;&#160;&#160;&#160;&#160;&#160;&#160;&#160;&#160;&#160;&#160;&#160;&#160;&#160;&#160;&#160;&#160;&#160;&#160;&#160;&#160;&#160;&#160;&#160;&#160;&#160;&#160;&#160;&#160;&#160;&#160;&#160;&#160;&#160;&#160;&#160;&#160;&#160;</text>
<polygon fill="none" stroke="#99ccff" points="854.8746,-133.8 854.8746,-152.8 958.8746,-152.8 958.8746,-133.8 854.8746,-133.8"/>
<text text-anchor="start" x="877.1796" y="-139.9" font-family="Courier,monospace" font-size="11.00" fill="#000000">string(8)</text>
<polygon fill="none" stroke="#99ccff" points="202.8746,-114.8 202.8746,-133.8 854.8746,-133.8 854.8746,-114.8 202.8746,-114.8"/>
<text text-anchor="start" x="205.8746" y="-120.9" font-family="Courier,monospace" font-size="11.00" fill="#000000"> &#160;&#160;&#160;&#160;&#160;&#160;&#160;&#160;&#160;&#160;&#160;&#160;&#160;&#160;&#160;&#160;&#160;&#160;&#160;&#160;&#160;&#160;&#160;&#160;&#160;&#160;&#160;&#160;&#160;&#160;&#160;&#160;&#160;&#160;&#160;&#160;&#160;&#160;&#160;&#160;Namespace &#160;&#160;&#160;&#160;&#160;&#160;&#160;&#160;&#160;&#160;&#160;&#160;&#160;&#160;&#160;&#160;&#160;&#160;&#160;&#160;&#160;&#160;&#160;&#160;&#160;&#160;&#160;&#160;&#160;&#160;&#160;&#160;&#160;&#160;&#160;&#160;&#160;&#160;</text>
<polygon fill="none" stroke="#99ccff" points="854.8746,-114.8 854.8746,-133.8 958.8746,-133.8 958.8746,-114.8 854.8746,-114.8"/>
<text text-anchor="start" x="877.1796" y="-120.9" font-family="Courier,monospace" font-size="11.00" fill="#000000">string(9)</text>
<polygon fill="none" stroke="#99ccff" points="202.8746,-95.8 202.8746,-114.8 854.8746,-114.8 854.8746,-95.8 202.8746,-95.8"/>
<text text-anchor="start" x="205.8746" y="-101.9" font-family="Courier,monospace" font-size="11.00" fill="#000000"> &#160;&#160;&#160;&#160;&#160;&#160;&#160;&#160;&#160;&#160;&#160;&#160;&#160;&#160;&#160;&#160;&#160;&#160;&#160;&#160;&#160;&#160;&#160;&#160;&#160;&#160;&#160;&#160;&#160;&#160;&#160;&#160;&#160;&#160;&#160;&#160;&#160;&#160;&#160;&#160;SignupUsername &#160;&#160;&#160;&#160;&#160;&#160;&#160;&#160;&#160;&#160;&#160;&#160;&#160;&#160;&#160;&#160;&#160;&#160;&#160;&#160;&#160;&#160;&#160;&#160;&#160;&#160;&#160;&#160;&#160;&#160;&#160;&#160;&#160;&#160;&#160;&#160;&#160;&#160;</text>
<polygon fill="none" stroke="#99ccff" points="854.8746,-95.8 854.8746,-114.8 958.8746,-114.8 958.8746,-95.8 854.8746,-95.8"/>
<text text-anchor="start" x="873.8801" y="-101.9" font-family="Courier,monospace" font-size="11.00" fill="#000000">string(80)</text>
<polygon fill="none" stroke="#99ccff" points="202.8746,-76.8 202.8746,-95.8 854.8746,-95.8 854.8746,-76.8 202.8746,-76.8"/>
<text text-anchor="start" x="205.8746" y="-82.9" font-family="Courier,monospace" font-size="11.00" fill="#000000"> &#160;&#160;&#160;&#160;&#160;&#160;&#160;&#160;&#160;&#160;&#160;&#160;&#160;&#160;&#160;&#160;&#160;&#160;&#160;&#160;&#160;&#160;&#160;&#160;&#160;&#160;&#160;&#160;&#160;&#160;&#160;&#160;&#160;&#160;&#160;&#160;&#160;&#160;&#160;&#160;SignupEmail &#160;&#160;&#160;&#160;&#160;&#160;&#160;&#160;&#160;&#160;&#160;&#160;&#160;&#160;&#160;&#160;&#160;&#160;&#160;&#160;&#160;&#160;&#160;&#160;&#160;&#160;&#160;&#160;&#160;&#160;&#160;&#160;&#160;&#160;&#160;&#160;&#160;&#160;</text>
<polygon fill="none" stroke="#99ccff" points="854.8746,-76.8 854.8746,-95.8 958.8746,-95.8 958.8746,-76.8 854.8746,-76.8"/>
<text text-anchor="start" x="877.1796" y="-82.9" font-family="Courier,monospace" font-size="11.00" fill="#000000">email(80)</text>
<polygon fill="none" stroke="#99ccff" points="202.8746,-57.8 202.8746,-76.8 854.8746,-76.8 854.8746,-57.8 202.8746,-57.8"/>
<text text-anchor="start" x="205.8746" y="-63.9" font-family="Courier,monospace" font-size="11.00" fill="#000000"> &#160;&#160;&#160;&#160;&#160;&#160;&#160;&#160;&#160;&#160;&#160;&#160;&#160;&#160;&#160;&#160;&#160;&#160;&#160;&#160;&#160;&#160;&#160;&#160;&#160;&#160;&#160;&#160;&#160;&#160;&#160;&#160;&#160;&#160;&#160;&#160;&#160;&#160;&#160;&#160;OrgName &#160;&#160;&#160;&#160;&#160;&#160;&#160;&#160;&#160;&#160;&#160;&#160;&#160;&#160;&#160;&#160;&#160;&#160;&#160;&#160;&#160;&#160;&#160;&#160;&#160;&#160;&#160;&#160;&#160;&#160;&#160;&#160;&#160;&#160;&#160;&#160;&#160;&#160;</text>
<polygon fill="none" stroke="#99ccff" points="854.8746,-57.8 854.8746,-76.8 958.8746,-76.8 958.8746,-57.8 854.8746,-57.8"/>
<text text-anchor="start" x="873.8801" y="-63.9" font-family="Courier,monospace" font-size="11.00" fill="#000000">string(80)</text>
<polygon fill="none" stroke="#99ccff" points="202.8746,-38.8 202.8746,-57.8 854.8746,-57.8 854.8746,-38.8 202.8746,-38.8"/>
<text text-anchor="start" x="205.8746" y="-44.9" font-family="Courier,monospace" font-size="11.00" fill="#000000"> &#160;&#160;&#160;&#160;&#160;&#160;&#160;&#160;&#160;&#160;&#160;&#160;&#160;&#160;&#160;&#160;&#160;&#160;&#160;&#160;&#160;&#160;&#160;&#160;&#160;&#160;&#160;&#160;&#160;&#160;&#160;&#160;&#160;&#160;&#160;&#160;&#160;&#160;&#160;&#160;LastLoginDate &#160;&#160;&#160;&#160;&#160;&#160;&#160;&#160;&#160;&#160;&#160;&#160;&#160;&#160;&#160;&#160;&#160;&#160;&#160;&#160;&#160;&#160;&#160;&#160;&#160;&#160;&#160;&#160;&#160;&#160;&#160;&#160;&#160;&#160;&#160;&#160;&#160;&#160;</text>
<polygon fill="none" stroke="#99ccff" points="854.8746,-38.8 854.8746,-57.8 958.8746,-57.8 958.8746,-38.8 854.8746,-38.8"/>
<text text-anchor="start" x="893.6768" y="-44.9" font-family="Courier,monospace" font-size="11.00" fill="#000000">date</text>
<polygon fill="none" stroke="#99ccff" points="202.8746,-19.8 202.8746,-38.8 854.8746,-38.8 854.8746,-19.8 202.8746,-19.8"/>
<text text-anchor="start" x="205.8746" y="-25.9" font-family="Courier,monospace" font-size="11.00" fill="#000000"> &#160;&#160;&#160;&#160;&#160;&#160;&#160;&#160;&#160;&#160;&#160;&#160;&#160;&#160;&#160;&#160;&#160;&#160;&#160;&#160;&#160;&#160;&#160;&#160;&#160;&#160;&#160;&#160;&#160;&#160;&#160;&#160;&#160;&#160;&#160;&#160;&#160;&#160;&#160;&#160;HasSampleData &#160;&#160;&#160;&#160;&#160;&#160;&#160;&#160;&#160;&#160;&#160;&#160;&#160;&#160;&#160;&#160;&#160;&#160;&#160;&#160;&#160;&#160;&#160;&#160;&#160;&#160;&#160;&#160;&#160;&#160;&#160;&#160;&#160;&#160;&#160;&#160;&#160;&#160;</text>
<polygon fill="none" stroke="#99ccff" points="854.8746,-19.8 854.8746,-38.8 958.8746,-38.8 958.8746,-19.8 854.8746,-19.8"/>
<text text-anchor="start" x="883.7785" y="-25.9" font-family="Courier,monospace" font-size="11.00" fill="#000000">boolean</text>
<polygon fill="none" stroke="#99ccff" points="201.8746,-18.8 201.8746,-438.8 959.8746,-438.8 959.8746,-18.8 201.8746,-18.8"/>
</a>
</g>
</g>
<!-- Group -->
<g id="node2" class="node">
<title>Group</title>
<text text-anchor="middle" x="54.1923" y="-388.5" font-family="Courier,monospace" font-size="11.00" fill="#000000">Group</text>
</g>
<!-- ActiveScratchOrg&#45;&gt;Group -->
<g id="edge1" class="edge">
<title>ActiveScratchOrg:w&#45;&gt;Group:e</title>
<path fill="none" stroke="#ff99cc" d="M188.2194,-390.8151C149.4956,-390.892 107.7518,-391.2463 81.323,-391.5081"/>
<polygon fill="#ff99cc" stroke="#ff99cc" points="194.8746,-390.8083 202.8783,-394.4 198.8746,-390.8042 202.8746,-390.8 202.8746,-390.8 202.8746,-390.8 198.8746,-390.8042 202.8709,-387.2 194.8746,-390.8083 194.8746,-390.8083"/>
<ellipse fill="none" stroke="#ff99cc" cx="191.6746" cy="-390.8116" rx="3.2" ry="3.2"/>
<text text-anchor="middle" x="155.1296" y="-393.5" font-family="Monaco" font-size="9.00" fill="#000000">Owner</text>
</g>
<!-- User -->
<g id="node3" class="node">
<title>User</title>
<text text-anchor="middle" x="54.1923" y="-334.5" font-family="Courier,monospace" font-size="11.00" fill="#000000">User</text>
</g>
<!-- ActiveScratchOrg&#45;&gt;User -->
<g id="edge2" class="edge">
<title>ActiveScratchOrg:w&#45;&gt;User:e</title>
<path fill="none" stroke="#ff99cc" d="M192.8867,-380.2712C191.6461,-374.9005 190.5267,-368.7308 184.8746,-365 168.1449,-353.9572 114.3464,-345.4177 81.22,-341.0412"/>
<polygon fill="#ff99cc" stroke="#ff99cc" points="197.3688,-384.996 200.2628,-393.2776 200.1217,-387.898 202.8746,-390.8 202.8746,-390.8 202.8746,-390.8 200.1217,-387.898 205.4864,-388.3224 197.3688,-384.996 197.3688,-384.996"/>
<ellipse fill="none" stroke="#ff99cc" cx="195.1665" cy="-382.6744" rx="3.2" ry="3.2"/>
<text text-anchor="middle" x="155.1296" y="-367.5" font-family="Monaco" font-size="9.00" fill="#000000">Owner</text>
</g>
<!-- ActiveScratchOrg&#45;&gt;User -->
<g id="edge3" class="edge">
<title>ActiveScratchOrg:w&#45;&gt;User:e</title>
<path fill="none" stroke="#ff99cc" d="M188.4248,-333.7536C165.1098,-333.6038 154.4321,-333.1878 125.3846,-334 110.785,-334.4082 94.5187,-335.2475 81.224,-336.0337"/>
<polygon fill="#ff99cc" stroke="#ff99cc" points="194.8746,-333.7743 202.863,-337.4 198.8746,-333.7871 202.8746,-333.8 202.8746,-333.8 202.8746,-333.8 198.8746,-333.7871 202.8862,-330.2 194.8746,-333.7743 194.8746,-333.7743"/>
<ellipse fill="none" stroke="#ff99cc" cx="191.6747" cy="-333.764" rx="3.2" ry="3.2"/>
<text text-anchor="middle" x="155.1296" y="-336.5" font-family="Monaco" font-size="9.00" fill="#000000">LastModifiedBy</text>
</g>
<!-- ScratchOrgInfo -->
<g id="node4" class="node">
<title>ScratchOrgInfo</title>
<text text-anchor="middle" x="54.1923" y="-254.5" font-family="Courier,monospace" font-size="11.00" fill="#000000">ScratchOrgInfo</text>
</g>
<!-- ActiveScratchOrg&#45;&gt;ScratchOrgInfo -->
<g id="edge4" class="edge">
<title>ActiveScratchOrg:w&#45;&gt;ScratchOrgInfo:e</title>
<path fill="none" stroke="#ff99cc" d="M188.3799,-257.8C161.1573,-257.8 132.4285,-257.8 108.5683,-257.8"/>
<polygon fill="#ff99cc" stroke="#ff99cc" points="194.8746,-257.8001 202.8746,-261.4 198.8746,-257.8 202.8746,-257.8 202.8746,-257.8 202.8746,-257.8 198.8746,-257.8 202.8746,-254.2 194.8746,-257.8001 194.8746,-257.8001"/>
<ellipse fill="none" stroke="#ff99cc" cx="191.6746" cy="-257.8001" rx="3.2" ry="3.2"/>
<text text-anchor="middle" x="155.1296" y="-260.5" font-family="Monaco" font-size="9.00" fill="#000000">ScratchOrgInfo</text>
</g>
</g>
</svg>
