<?xml version="1.0" encoding="UTF-8" standalone="no"?>
<!DOCTYPE svg PUBLIC "-//W3C//DTD SVG 1.1//EN"
 "http://www.w3.org/Graphics/SVG/1.1/DTD/svg11.dtd">
<!-- Generated by graphviz version 2.40.1 (20161225.0304)
 -->
<!-- Title: Salesforce+ ERD Pages: 1 -->
<svg width="885pt" height="257pt"
 viewBox="0.00 0.00 885.49 256.80" xmlns="http://www.w3.org/2000/svg" xmlns:xlink="http://www.w3.org/1999/xlink">
<g id="graph0" class="graph" transform="scale(1 1) rotate(0) translate(4 252.8)">
<title>Salesforce+ ERD</title>
<polygon fill="#efeffd" stroke="transparent" points="-4,4 -4,-252.8 881.4865,-252.8 881.4865,4 -4,4"/>
<text text-anchor="middle" x="828.9933" y="-6.7" font-family="Courier,monospace" font-size="9.00" fill="#000000">Salesforce ERD </text>
<!-- ApexLog -->
<g id="node1" class="node">
<title>ApexLog</title>
<g id="a_node1"><a xlink:href="#" xlink:title=" ApexLog ">
<polygon fill="#ffeeff" stroke="transparent" points="119.4865,-18.8 119.4865,-248.8 877.4865,-248.8 877.4865,-18.8 119.4865,-18.8"/>
<polygon fill="#add8e6" stroke="transparent" points="120.4865,-228.8 120.4865,-247.8 876.4865,-247.8 876.4865,-228.8 120.4865,-228.8"/>
<polygon fill="none" stroke="#99ccff" points="120.4865,-228.8 120.4865,-247.8 876.4865,-247.8 876.4865,-228.8 120.4865,-228.8"/>
<text text-anchor="start" x="475.3904" y="-235.9" font-family="Courier,monospace" font-weight="bold" font-size="11.00" fill="#000000">ApexLog</text>
<polygon fill="#99ccff" stroke="transparent" points="120.4865,-209.8 120.4865,-228.8 785.4865,-228.8 785.4865,-209.8 120.4865,-209.8"/>
<polygon fill="none" stroke="#99ccff" points="120.4865,-209.8 120.4865,-228.8 785.4865,-228.8 785.4865,-209.8 120.4865,-209.8"/>
<text text-anchor="start" x="123.4865" y="-216.9" font-family="Courier,monospace" font-size="11.00" fill="#000000"> &#160;&#160;&#160;&#160;&#160;&#160;&#160;&#160;&#160;&#160;&#160;&#160;&#160;&#160;&#160;&#160;&#160;&#160;&#160;&#160;&#160;&#160;&#160;&#160;&#160;&#160;&#160;&#160;&#160;&#160;&#160;&#160;&#160;&#160;&#160;&#160;&#160;&#160;&#160;&#160;&#160;&#160;</text>
<text text-anchor="start" x="407.2392" y="-216.9" font-family="Courier,monospace" font-weight="bold" font-size="11.00" fill="#000000">Id</text>
<text text-anchor="start" x="420.437" y="-216.9" font-family="Courier,monospace" font-size="11.00" fill="#000000"> &#160;&#160;&#160;&#160;&#160;&#160;&#160;&#160;&#160;&#160;&#160;&#160;&#160;&#160;&#160;&#160;&#160;&#160;&#160;&#160;&#160;&#160;&#160;&#160;&#160;&#160;&#160;&#160;&#160;&#160;&#160;&#160;&#160;&#160;&#160;&#160;&#160;&#160;&#160;</text>
<polygon fill="none" stroke="#99ccff" points="785.4865,-209.8 785.4865,-228.8 876.4865,-228.8 876.4865,-209.8 785.4865,-209.8"/>
<text text-anchor="start" x="811.1898" y="-215.9" font-family="Courier,monospace" font-size="11.00" fill="#000000">id(18)</text>
<polygon fill="none" stroke="#99ccff" points="120.4865,-190.8 120.4865,-209.8 785.4865,-209.8 785.4865,-190.8 120.4865,-190.8"/>
<text text-anchor="start" x="123.4865" y="-196.9" font-family="Courier,monospace" font-size="11.00" fill="#000000"> &#160;&#160;&#160;&#160;&#160;&#160;&#160;&#160;&#160;&#160;&#160;&#160;&#160;&#160;&#160;&#160;&#160;&#160;&#160;&#160;&#160;&#160;&#160;&#160;&#160;&#160;&#160;&#160;&#160;&#160;&#160;&#160;&#160;&#160;&#160;&#160;&#160;&#160;&#160;&#160;LogUserId &#160;&#160;&#160;&#160;&#160;&#160;&#160;&#160;&#160;&#160;&#160;&#160;&#160;&#160;&#160;&#160;&#160;&#160;&#160;&#160;&#160;&#160;&#160;&#160;&#160;&#160;&#160;&#160;&#160;&#160;&#160;&#160;&#160;&#160;&#160;&#160;&#160;&#160;</text>
<polygon fill="none" stroke="#99ccff" points="785.4865,-190.8 785.4865,-209.8 876.4865,-209.8 876.4865,-190.8 785.4865,-190.8"/>
<text text-anchor="start" x="788.0937" y="-196.9" font-family="Courier,monospace" font-size="11.00" fill="#000000">reference(18)</text>
<polygon fill="none" stroke="#99ccff" points="120.4865,-171.8 120.4865,-190.8 785.4865,-190.8 785.4865,-171.8 120.4865,-171.8"/>
<text text-anchor="start" x="123.4865" y="-177.9" font-family="Courier,monospace" font-size="11.00" fill="#000000"> &#160;&#160;&#160;&#160;&#160;&#160;&#160;&#160;&#160;&#160;&#160;&#160;&#160;&#160;&#160;&#160;&#160;&#160;&#160;&#160;&#160;&#160;&#160;&#160;&#160;&#160;&#160;&#160;&#160;&#160;&#160;&#160;&#160;&#160;&#160;&#160;&#160;&#160;&#160;&#160;LogLength &#160;&#160;&#160;&#160;&#160;&#160;&#160;&#160;&#160;&#160;&#160;&#160;&#160;&#160;&#160;&#160;&#160;&#160;&#160;&#160;&#160;&#160;&#160;&#160;&#160;&#160;&#160;&#160;&#160;&#160;&#160;&#160;&#160;&#160;&#160;&#160;&#160;&#160;</text>
<polygon fill="none" stroke="#99ccff" points="785.4865,-171.8 785.4865,-190.8 876.4865,-190.8 876.4865,-171.8 785.4865,-171.8"/>
<text text-anchor="start" x="821.0881" y="-177.9" font-family="Courier,monospace" font-size="11.00" fill="#000000">int</text>
<polygon fill="none" stroke="#99ccff" points="120.4865,-152.8 120.4865,-171.8 785.4865,-171.8 785.4865,-152.8 120.4865,-152.8"/>
<text text-anchor="start" x="123.4865" y="-158.9" font-family="Courier,monospace" font-size="11.00" fill="#000000"> &#160;&#160;&#160;&#160;&#160;&#160;&#160;&#160;&#160;&#160;&#160;&#160;&#160;&#160;&#160;&#160;&#160;&#160;&#160;&#160;&#160;&#160;&#160;&#160;&#160;&#160;&#160;&#160;&#160;&#160;&#160;&#160;&#160;&#160;&#160;&#160;&#160;&#160;&#160;&#160;Request &#160;&#160;&#160;&#160;&#160;&#160;&#160;&#160;&#160;&#160;&#160;&#160;&#160;&#160;&#160;&#160;&#160;&#160;&#160;&#160;&#160;&#160;&#160;&#160;&#160;&#160;&#160;&#160;&#160;&#160;&#160;&#160;&#160;&#160;&#160;&#160;&#160;&#160;</text>
<polygon fill="none" stroke="#99ccff" points="785.4865,-152.8 785.4865,-171.8 876.4865,-171.8 876.4865,-152.8 785.4865,-152.8"/>
<text text-anchor="start" x="797.992" y="-158.9" font-family="Courier,monospace" font-size="11.00" fill="#000000">string(16)</text>
<polygon fill="none" stroke="#99ccff" points="120.4865,-133.8 120.4865,-152.8 785.4865,-152.8 785.4865,-133.8 120.4865,-133.8"/>
<text text-anchor="start" x="123.4865" y="-139.9" font-family="Courier,monospace" font-size="11.00" fill="#000000"> &#160;&#160;&#160;&#160;&#160;&#160;&#160;&#160;&#160;&#160;&#160;&#160;&#160;&#160;&#160;&#160;&#160;&#160;&#160;&#160;&#160;&#160;&#160;&#160;&#160;&#160;&#160;&#160;&#160;&#160;&#160;&#160;&#160;&#160;&#160;&#160;&#160;&#160;&#160;&#160;Operation &#160;&#160;&#160;&#160;&#160;&#160;&#160;&#160;&#160;&#160;&#160;&#160;&#160;&#160;&#160;&#160;&#160;&#160;&#160;&#160;&#160;&#160;&#160;&#160;&#160;&#160;&#160;&#160;&#160;&#160;&#160;&#160;&#160;&#160;&#160;&#160;&#160;&#160;</text>
<polygon fill="none" stroke="#99ccff" points="785.4865,-133.8 785.4865,-152.8 876.4865,-152.8 876.4865,-133.8 785.4865,-133.8"/>
<text text-anchor="start" x="794.6926" y="-139.9" font-family="Courier,monospace" font-size="11.00" fill="#000000">string(128)</text>
<polygon fill="none" stroke="#99ccff" points="120.4865,-114.8 120.4865,-133.8 785.4865,-133.8 785.4865,-114.8 120.4865,-114.8"/>
<text text-anchor="start" x="123.4865" y="-120.9" font-family="Courier,monospace" font-size="11.00" fill="#000000"> &#160;&#160;&#160;&#160;&#160;&#160;&#160;&#160;&#160;&#160;&#160;&#160;&#160;&#160;&#160;&#160;&#160;&#160;&#160;&#160;&#160;&#160;&#160;&#160;&#160;&#160;&#160;&#160;&#160;&#160;&#160;&#160;&#160;&#160;&#160;&#160;&#160;&#160;&#160;&#160;Application &#160;&#160;&#160;&#160;&#160;&#160;&#160;&#160;&#160;&#160;&#160;&#160;&#160;&#160;&#160;&#160;&#160;&#160;&#160;&#160;&#160;&#160;&#160;&#160;&#160;&#160;&#160;&#160;&#160;&#160;&#160;&#160;&#160;&#160;&#160;&#160;&#160;&#160;</text>
<polygon fill="none" stroke="#99ccff" points="785.4865,-114.8 785.4865,-133.8 876.4865,-133.8 876.4865,-114.8 785.4865,-114.8"/>
<text text-anchor="start" x="797.992" y="-120.9" font-family="Courier,monospace" font-size="11.00" fill="#000000">string(64)</text>
<polygon fill="none" stroke="#99ccff" points="120.4865,-95.8 120.4865,-114.8 785.4865,-114.8 785.4865,-95.8 120.4865,-95.8"/>
<text text-anchor="start" x="123.4865" y="-101.9" font-family="Courier,monospace" font-size="11.00" fill="#000000"> &#160;&#160;&#160;&#160;&#160;&#160;&#160;&#160;&#160;&#160;&#160;&#160;&#160;&#160;&#160;&#160;&#160;&#160;&#160;&#160;&#160;&#160;&#160;&#160;&#160;&#160;&#160;&#160;&#160;&#160;&#160;&#160;&#160;&#160;&#160;&#160;&#160;&#160;&#160;&#160;Status &#160;&#160;&#160;&#160;&#160;&#160;&#160;&#160;&#160;&#160;&#160;&#160;&#160;&#160;&#160;&#160;&#160;&#160;&#160;&#160;&#160;&#160;&#160;&#160;&#160;&#160;&#160;&#160;&#160;&#160;&#160;&#160;&#160;&#160;&#160;&#160;&#160;&#160;</text>
<polygon fill="none" stroke="#99ccff" points="785.4865,-95.8 785.4865,-114.8 876.4865,-114.8 876.4865,-95.8 785.4865,-95.8"/>
<text text-anchor="start" x="794.6926" y="-101.9" font-family="Courier,monospace" font-size="11.00" fill="#000000">string(255)</text>
<polygon fill="none" stroke="#99ccff" points="120.4865,-76.8 120.4865,-95.8 785.4865,-95.8 785.4865,-76.8 120.4865,-76.8"/>
<text text-anchor="start" x="123.0415" y="-82.9" font-family="Courier,monospace" font-size="11.00" fill="#000000"> &#160;&#160;&#160;&#160;&#160;&#160;&#160;&#160;&#160;&#160;&#160;&#160;&#160;&#160;&#160;&#160;&#160;&#160;&#160;&#160;&#160;&#160;&#160;&#160;&#160;&#160;&#160;&#160;&#160;&#160;&#160;&#160;&#160;&#160;&#160;&#160;&#160;&#160;&#160;&#160;DurationMilliseconds &#160;&#160;&#160;&#160;&#160;&#160;&#160;&#160;&#160;&#160;&#160;&#160;&#160;&#160;&#160;&#160;&#160;&#160;&#160;&#160;&#160;&#160;&#160;&#160;&#160;&#160;&#160;&#160;&#160;&#160;&#160;&#160;&#160;&#160;&#160;&#160;&#160;&#160;</text>
<polygon fill="none" stroke="#99ccff" points="785.4865,-76.8 785.4865,-95.8 876.4865,-95.8 876.4865,-76.8 785.4865,-76.8"/>
<text text-anchor="start" x="821.0881" y="-82.9" font-family="Courier,monospace" font-size="11.00" fill="#000000">int</text>
<polygon fill="none" stroke="#99ccff" points="120.4865,-57.8 120.4865,-76.8 785.4865,-76.8 785.4865,-57.8 120.4865,-57.8"/>
<text text-anchor="start" x="123.4865" y="-63.9" font-family="Courier,monospace" font-size="11.00" fill="#000000"> &#160;&#160;&#160;&#160;&#160;&#160;&#160;&#160;&#160;&#160;&#160;&#160;&#160;&#160;&#160;&#160;&#160;&#160;&#160;&#160;&#160;&#160;&#160;&#160;&#160;&#160;&#160;&#160;&#160;&#160;&#160;&#160;&#160;&#160;&#160;&#160;&#160;&#160;&#160;&#160;StartTime &#160;&#160;&#160;&#160;&#160;&#160;&#160;&#160;&#160;&#160;&#160;&#160;&#160;&#160;&#160;&#160;&#160;&#160;&#160;&#160;&#160;&#160;&#160;&#160;&#160;&#160;&#160;&#160;&#160;&#160;&#160;&#160;&#160;&#160;&#160;&#160;&#160;&#160;</text>
<polygon fill="none" stroke="#99ccff" points="785.4865,-57.8 785.4865,-76.8 876.4865,-76.8 876.4865,-57.8 785.4865,-57.8"/>
<text text-anchor="start" x="804.5909" y="-63.9" font-family="Courier,monospace" font-size="11.00" fill="#000000">datetime</text>
<polygon fill="none" stroke="#99ccff" points="120.4865,-38.8 120.4865,-57.8 785.4865,-57.8 785.4865,-38.8 120.4865,-38.8"/>
<text text-anchor="start" x="123.4865" y="-44.9" font-family="Courier,monospace" font-size="11.00" fill="#000000"> &#160;&#160;&#160;&#160;&#160;&#160;&#160;&#160;&#160;&#160;&#160;&#160;&#160;&#160;&#160;&#160;&#160;&#160;&#160;&#160;&#160;&#160;&#160;&#160;&#160;&#160;&#160;&#160;&#160;&#160;&#160;&#160;&#160;&#160;&#160;&#160;&#160;&#160;&#160;&#160;Location &#160;&#160;&#160;&#160;&#160;&#160;&#160;&#160;&#160;&#160;&#160;&#160;&#160;&#160;&#160;&#160;&#160;&#160;&#160;&#160;&#160;&#160;&#160;&#160;&#160;&#160;&#160;&#160;&#160;&#160;&#160;&#160;&#160;&#160;&#160;&#160;&#160;&#160;</text>
<polygon fill="none" stroke="#99ccff" points="785.4865,-38.8 785.4865,-57.8 876.4865,-57.8 876.4865,-38.8 785.4865,-38.8"/>
<text text-anchor="start" x="791.3931" y="-44.9" font-family="Courier,monospace" font-size="11.00" fill="#000000">picklist(40)</text>
<polygon fill="none" stroke="#99ccff" points="120.4865,-19.8 120.4865,-38.8 785.4865,-38.8 785.4865,-19.8 120.4865,-19.8"/>
<text text-anchor="start" x="123.4865" y="-25.9" font-family="Courier,monospace" font-size="11.00" fill="#000000"> &#160;&#160;&#160;&#160;&#160;&#160;&#160;&#160;&#160;&#160;&#160;&#160;&#160;&#160;&#160;&#160;&#160;&#160;&#160;&#160;&#160;&#160;&#160;&#160;&#160;&#160;&#160;&#160;&#160;&#160;&#160;&#160;&#160;&#160;&#160;&#160;&#160;&#160;&#160;&#160;RequestIdentifier &#160;&#160;&#160;&#160;&#160;&#160;&#160;&#160;&#160;&#160;&#160;&#160;&#160;&#160;&#160;&#160;&#160;&#160;&#160;&#160;&#160;&#160;&#160;&#160;&#160;&#160;&#160;&#160;&#160;&#160;&#160;&#160;&#160;&#160;&#160;&#160;&#160;&#160;</text>
<polygon fill="none" stroke="#99ccff" points="785.4865,-19.8 785.4865,-38.8 876.4865,-38.8 876.4865,-19.8 785.4865,-19.8"/>
<text text-anchor="start" x="797.992" y="-25.9" font-family="Courier,monospace" font-size="11.00" fill="#000000">string(84)</text>
<polygon fill="none" stroke="#99ccff" points="119.4865,-18.8 119.4865,-248.8 877.4865,-248.8 877.4865,-18.8 119.4865,-18.8"/>
</a>
</g>
</g>
<!-- User -->
<g id="node2" class="node">
<title>User</title>
<text text-anchor="middle" x="27" y="-197.5" font-family="Courier,monospace" font-size="11.00" fill="#000000">User</text>
</g>
<!-- ApexLog&#45;&gt;User -->
<g id="edge1" class="edge">
<title>ApexLog:w&#45;&gt;User:e</title>
<path fill="none" stroke="#ff99cc" d="M106.0016,-200.8C87.6663,-200.8 68.7338,-200.8 54.0005,-200.8"/>
<polygon fill="#ff99cc" stroke="#ff99cc" points="112.4865,-200.8001 120.4865,-204.4 116.4865,-200.8 120.4865,-200.8 120.4865,-200.8 120.4865,-200.8 116.4865,-200.8 120.4865,-197.2 112.4865,-200.8001 112.4865,-200.8001"/>
<ellipse fill="none" stroke="#ff99cc" cx="109.2865" cy="-200.8001" rx="3.2" ry="3.2"/>
<text text-anchor="middle" x="86.7433" y="-203.5" font-family="Monaco" font-size="9.00" fill="#000000">LogUser</text>
</g>
</g>
</svg>
